<?xml version="1.0" encoding="utf-8"?>
<!-- Generator: Adobe Illustrator 23.0.3, SVG Export Plug-In . SVG Version: 6.00 Build 0)  -->
<svg version="1.1" id="Layer_1" xmlns="http://www.w3.org/2000/svg" xmlns:xlink="http://www.w3.org/1999/xlink" x="0px" y="0px"
	 viewBox="0 0 2893 1022.6" style="enable-background:new 0 0 2893 1022.6;" xml:space="preserve">
<style type="text/css">
	.st0{fill:#FFFFFF;}
</style>
<g>
	<path class="st0" d="M819.9,589.7l-147,10.4c-49,3.5-98-6.1-141.9-27.7l-28.6-14c-5.7-2.8-9.2-7.5-10.6-12.5
		c-3.7-14,6-25,20.8-24.3c12,0.6,43,0.8,82.3-8.6c29.4-7.1,34.1-45.9,7.1-59.2l-23.4-11.6c-31.8-15.7-68.7-18.6-102.6-8.3l-174.3,53
		c0,0-31.8,10.3-65.2,0.7c-0.3-0.1-0.8-0.3-1.1-0.3c-27.1-8.1-29.8-44.3-4.2-56.1l259.7-119c31-14.2,67-13.7,97.5,1.4l97.7,48.1
		l133,65.5c16.7,8.3,36.4-20.6,36.4-38.8l0,0c0-18.6-9.2-36.2-24.8-47.1L508.8,113.8c-21-14.8-49.4-14.8-70.5,0L116.5,341.1
		c-15.6,11-24.8,28.5-24.8,47.1v143.6c0,18.6,16.3,33.3,35.5,31.8c0.1,0,0.3,0,0.3,0l147-10.4c49-3.5,98,6.1,141.9,27.7l28.6,14
		c5.6,2.8,9.1,7.3,10.5,12.3c4,14.2-5.5,25.3-20.7,24.6c-11.9-0.6-43-0.9-82.3,8.6c-29.4,7.1-34.1,45.9-7.1,59.2l23.4,11.6
		c31.8,15.7,68.7,18.6,102.6,8.3l174.3-53c0,0,31.8-10.3,65.2-0.7c0.3,0.1,0.8,0.3,1.1,0.3c27.1,8.1,29.8,44.3,4.2,56.1L456.7,841.4
		c-31,14.2-67,13.7-97.5-1.4l-97.7-48.1l-133.1-65.5c-16.8-8.3-36.7,3.5-36.7,21.9V814c0,32.2,85.8,105.9,392.9,105.9
		c280.5,0,371.1-73.7,371.1-105.9l-0.2-192.6c0-18.5-16.3-33.1-35.4-31.7C820.2,589.7,820.1,589.7,819.9,589.7z"/>
</g>
<g>
	<path class="st0" d="M1121,461.4c0,0-5.9-1.2-17.7-3.7c-11.8-2.5-22.9-6.1-33.2-10.9c-10.4-4.8-19.6-10.6-27.8-17.3l22.6-40.2
		c10,8.2,21.4,14.5,34.5,18.9c13,4.4,26.4,6.7,40.2,6.7c15.9,0,28.2-2.7,37-8.1c8.8-5.4,13.2-13,13.2-22.8v-0.2
		c0-6.9-2-12.3-5.9-16.4c-3.9-4-9-7-15.3-8.9c-6.3-1.9-14.3-3.6-24.2-5.2c-0.4-0.1-0.7-0.2-1-0.2c-0.3,0-0.6-0.1-1-0.2l-3.9-0.5
		c-17.3-2.7-31.6-6.1-43-10.2c-11.4-4.1-21-11.3-29-21.5c-7.9-10.2-11.9-24.8-11.9-43.6v-0.2c0-16.7,3.7-31,11.2-42.8
		c7.5-11.8,18.3-20.9,32.5-27.1s31.4-9.3,51.5-9.3c9.2,0,18.7,1.1,28.3,3.2c9.7,2.1,19.1,5.2,28.3,9.2c9.2,4,18,8.9,26.3,14.6
		l-20.6,41.2c-10-6.9-20.4-12.2-31.2-16c-10.8-3.8-21.2-5.7-31.2-5.7c-14.9,0-26.5,2.5-34.7,7.4c-8.2,4.9-12.3,11.8-12.3,20.7v0.2
		c0,7.5,2.1,13.4,6.4,17.7c4.3,4.3,9.5,7.5,15.8,9.5c6.3,2,15.1,4.1,26.5,6.4c0.5,0.1,0.9,0.2,1.4,0.3c0.5,0.1,0.9,0.1,1.4,0.3
		c0.7,0.1,1.4,0.3,2,0.4c0.7,0.2,1.3,0.3,2,0.4c16.4,3.2,30,7.1,41,11.6c11,4.6,20.1,11.9,27.5,22c7.3,10.1,11,24,11,41.5v0.4
		c0,16.5-3.9,30.6-11.6,42.3c-7.7,11.7-18.9,20.7-33.7,26.8c-14.8,6.2-32.5,9.2-53.2,9.2C1127.2,461.4,1121,461.4,1121,461.4z"/>
	<path class="st0" d="M1284.6,447.3c-9.8-9.4-14.7-23.7-14.7-42.9c0-18.2,5.5-31.9,16.4-41.1c11-9.1,27.4-13.7,49.3-13.7h46.2
		l2.5,37.1h-48.5c-7.3,0-12.9,1.5-16.5,4.4c-3.7,2.9-5.5,7.3-5.5,13.2c0,6,2.3,10.5,6.9,13.4c4.6,2.9,11.6,4.4,21,4.4
		c13,0,22.7-1.5,29.1-4.4c6.3-3,9.5-7.6,9.5-13.9l3.7,26.8c-0.7,6.6-3.8,12.3-9.2,16.9c-5.4,4.6-12.1,8.1-20.3,10.4
		c-8.1,2.3-16.7,3.5-25.7,3.5C1309.2,461.4,1294.4,456.7,1284.6,447.3z M1380.3,341.8c0-8.5-2.8-15.1-8.5-19.7
		c-5.7-4.6-13.7-6.9-24.2-6.9c-6.9,0-13.7,1.1-20.4,3.4c-6.8,2.3-12.7,5.4-18,9.4l-30.2-29.7c7.3-8.4,17.1-15,29.1-19.6
		c12.1-4.7,25.5-7,40.2-7c16.1,0,29.9,2.7,41.2,8.1c11.4,5.4,20.1,13.2,26,23.5c6,10.3,9,22.6,9,37.1v118.6h-44.3V341.8z"/>
	<path class="st0" d="M1469.9,200.3h48.7V249h-48.7V200.3z M1469.9,274.3h48.7v184.5h-48.7V274.3z"/>
	<path class="st0" d="M1563.9,274.3h48.7v184.5h-48.7V274.3z M1670.6,347c0-9-2.6-16-7.7-21c-5.2-5-12.5-7.5-22-7.5
		c-9,0-16,2.5-20.9,7.6c-4.9,5-7.4,12.1-7.4,21.2l-3.7-40.9c5.6-11.6,12.2-20.3,20-26.1c7.8-5.8,17.5-8.7,29.2-8.7
		c19.4,0,34.5,6.5,45.1,19.6c10.7,13.1,16,31.6,16,55.5v112h-48.7V347z"/>
	<path class="st0" d="M1821.3,461.4c0,0-5.2-1-15.6-2.9c-10.4-2-20.2-4.8-29.3-8.6c-9.1-3.8-17.2-8.4-24.2-13.7l30-37.5
		c8.9,5.7,18.2,10.1,27.9,13.2c9.7,3.1,19,4.6,27.7,4.6c11.4,0,20.2-1.3,26.5-3.8c6.3-2.5,9.4-6.1,9.4-10.6c0-4.1-1.4-7.3-4.1-9.4
		c-2.7-2.1-6.2-3.6-10.5-4.5s-10.3-1.7-18-2.4c-2.1-0.2-4.3-0.5-6.5-0.7c-2.2-0.2-4.4-0.5-6.7-0.7c-0.5-0.1-1-0.2-1.5-0.3
		c-0.5-0.1-1-0.1-1.5-0.1c-13.7-1.8-24.8-4-33.1-6.6c-8.3-2.6-15.3-7.6-21.1-15c-5.7-7.4-8.6-18.2-8.6-32.3c0-12.3,3-22.9,8.9-31.6
		c5.9-8.8,14.5-15.4,25.8-20c11.3-4.6,24.9-6.8,40.9-6.8c9.4,0,18.7,0.9,28,2.8c9.3,1.9,18.2,4.6,26.7,8.2
		c8.5,3.6,16.4,7.8,23.6,12.8l-29,35.4c-8.1-4.5-16.5-8-25.2-10.5c-8.8-2.5-17.2-3.7-25.2-3.7c-9.8,0-17.5,1.1-22.9,3.4
		c-5.5,2.3-8.2,5.4-8.2,9.4c0,3.1,1.4,5.5,4.4,7.2c2.9,1.7,6.5,3,10.8,3.7c4.3,0.8,10.6,1.6,18.9,2.6c1.1,0.1,2.1,0.2,3.2,0.4
		c1.1,0.1,2.1,0.2,3.2,0.4c0.5,0.1,1,0.2,1.6,0.2c0.6,0,1.1,0.1,1.6,0.2c14.3,1.7,26,3.8,35,6.4c9,2.6,16.7,7.8,23,15.6
		c6.3,7.8,9.5,19.3,9.5,34.5c0,12.8-3.1,23.8-9.2,32.9c-6.2,9.1-15.2,16.1-27,20.9c-11.9,4.8-26.1,7.2-42.8,7.2
		C1826.8,461.4,1821.3,461.4,1821.3,461.4z"/>
	<path class="st0" d="M1956,200.3h48.7v258.4H1956V200.3z M1978.8,392.3l86-118h51.5l-131,171.7L1978.8,392.3z M2022.5,363.5
		l40.2-24.2l62.7,119.4h-56.3L2022.5,363.5z"/>
	<path class="st0" d="M2201,461.4c0,0-6.3-3.2-18.9-9.7c-12.6-6.5-22.2-15.9-28.9-28.3c-6.6-12.4-10-27.3-10-44.7V358
		c0-18.2,3.2-33.8,9.5-46.7c6.3-12.9,15.6-22.8,27.7-29.5c12.1-6.8,26.8-10.1,44-10.1c16.1,0,29.9,4,41.4,12.1
		c11.5,8.1,20.2,19.8,26.2,35.1c6,15.3,9,33.9,9,55.5v12.1h-126.2v-32.9h81.8l-0.5-4.3c-1.3-10.7-4.7-18.9-10-24.7
		c-5.4-5.8-12.6-8.7-21.6-8.7c-11.7,0-20.8,3.5-27.3,10.5c-6.5,7-9.7,16.9-9.7,29.7v23.5c0,12.6,3.5,22.3,10.6,29.1
		c7,6.9,16.9,10.3,29.6,10.3c6.5,0,13-1.2,19.4-3.5c6.4-2.3,12.2-5.6,17.4-9.9l31.8,28.3c-9.6,8.8-20.4,15.6-32.3,20.4
		c-12,4.8-24.1,7.2-36.3,7.2C2209.9,461.4,2201,461.4,2201,461.4z"/>
	<path class="st0" d="M2343.7,274.3h52.3v184.5h-52.3V274.3z M2438.8,320.3c-3.4-1.2-7.4-1.8-11.9-1.8c-9.8,0-17.4,3.2-22.8,9.5
		c-5.4,6.3-8.1,15.1-8.1,26.4l-3.7-48c5.1-11,11.7-19.6,19.8-25.7c8.1-6.1,17-9.2,26.7-9.2c7.7,0,14.7,1.2,20.9,3.6
		c6.2,2.4,11.6,6,16.3,10.8l-28.4,39.6C2445.1,323.3,2442.2,321.5,2438.8,320.3z"/>
	<path class="st0" d="M2484.8,274.3h90.3v41.6h-90.3V274.3z M2515.1,447.3c-7.5-8.2-11.3-20.4-11.3-36.5V220.6h48.7v178.1
		c0,4.5,0.9,8,2.7,10.4c1.8,2.4,4.4,3.6,7.8,3.6h12.1v46.9h-24.5C2534.5,459.7,2522.6,455.5,2515.1,447.3z"/>
	<path class="st0" d="M2623.5,447.3c-9.8-9.4-14.7-23.7-14.7-42.9c0-18.2,5.5-31.9,16.4-41.1c11-9.1,27.4-13.7,49.3-13.7h46.2
		l2.5,37.1h-48.5c-7.3,0-12.9,1.5-16.5,4.4c-3.7,2.9-5.5,7.3-5.5,13.2c0,6,2.3,10.5,6.9,13.4c4.6,2.9,11.6,4.4,21,4.4
		c13,0,22.7-1.5,29.1-4.4c6.3-3,9.5-7.6,9.5-13.9l3.7,26.8c-0.7,6.6-3.8,12.3-9.2,16.9c-5.4,4.6-12.1,8.1-20.3,10.4
		c-8.1,2.3-16.7,3.5-25.7,3.5C2648.1,461.4,2633.3,456.7,2623.5,447.3z M2719.3,341.8c0-8.5-2.8-15.1-8.5-19.7
		c-5.7-4.6-13.7-6.9-24.2-6.9c-6.9,0-13.7,1.1-20.4,3.4c-6.8,2.3-12.7,5.4-18,9.4l-30.2-29.7c7.3-8.4,17.1-15,29.1-19.6
		c12.1-4.7,25.5-7,40.2-7c16.1,0,29.9,2.7,41.2,8.1c11.4,5.4,20.1,13.2,26,23.5c6,10.3,9,22.6,9,37.1v118.6h-44.3V341.8z"/>
	<path class="st0" d="M1058.3,563.9h59.5l96.2,198l-4.3,4.6V563.9h46.6v258.3h-59.9l-95.8-195l4.3-4.6v199.6h-46.6V563.9z"/>
	<path class="st0" d="M1358.3,749.9c0,8.9,2.5,15.8,7.6,20.7c5,4.9,12.1,7.4,21.2,7.4c9.1,0,16.1-2.5,21.1-7.6
		c4.9-5,7.4-12.2,7.4-21.6l2.5,40.3c-3.4,10.1-9.2,18.5-17.2,25.4c-8,6.9-17.7,10.3-29.2,10.3c-19.8,0-35.1-6.4-45.9-19.1
		c-10.8-12.7-16.2-30.8-16.2-54.1V637.8h48.7V749.9z M1415.5,637.8h48.5v184.5h-48.5V637.8z"/>
	<path class="st0" d="M1566.1,825c0,0-5.2-1-15.6-2.9c-10.4-2-20.2-4.8-29.3-8.6c-9.1-3.8-17.2-8.4-24.2-13.7l30-37.5
		c8.9,5.7,18.2,10.1,27.9,13.2c9.7,3.1,19,4.6,27.7,4.6c11.4,0,20.2-1.3,26.5-3.8c6.3-2.5,9.4-6.1,9.4-10.6c0-4.1-1.4-7.3-4.1-9.4
		c-2.7-2.1-6.2-3.6-10.5-4.5c-4.3-0.9-10.3-1.7-18-2.4c-2.1-0.2-4.3-0.5-6.5-0.7c-2.2-0.2-4.4-0.5-6.7-0.7c-0.5-0.1-1-0.2-1.5-0.3
		c-0.5-0.1-1-0.1-1.5-0.1c-13.7-1.8-24.8-4-33.1-6.6c-8.3-2.6-15.3-7.6-21.1-15c-5.7-7.4-8.6-18.2-8.6-32.3c0-12.3,3-22.9,8.9-31.6
		c5.9-8.8,14.5-15.4,25.8-20c11.3-4.6,24.9-6.8,40.9-6.8c9.4,0,18.7,0.9,28,2.8c9.3,1.9,18.2,4.6,26.7,8.2
		c8.5,3.6,16.4,7.8,23.6,12.8l-29,35.4c-8.1-4.5-16.5-8-25.2-10.5c-8.8-2.5-17.2-3.7-25.2-3.7c-9.8,0-17.5,1.1-22.9,3.4
		c-5.5,2.3-8.2,5.4-8.2,9.4c0,3.1,1.5,5.5,4.4,7.2c2.9,1.7,6.5,3,10.8,3.7c4.3,0.8,10.6,1.6,18.9,2.6c1.1,0.1,2.1,0.2,3.2,0.4
		c1.1,0.1,2.1,0.2,3.2,0.4c0.5,0.1,1,0.2,1.6,0.2c0.6,0,1.1,0.1,1.6,0.2c14.3,1.7,26,3.8,35,6.4c9,2.6,16.7,7.8,23,15.6
		c6.3,7.8,9.5,19.3,9.5,34.5c0,12.8-3.1,23.8-9.2,32.9c-6.2,9.1-15.2,16.1-27,20.9c-11.9,4.8-26.1,7.2-42.8,7.2
		C1571.6,825,1566.1,825,1566.1,825z"/>
	<path class="st0" d="M1706.6,810.8c-9.8-9.4-14.7-23.7-14.7-42.9c0-18.2,5.5-31.9,16.4-41.1c11-9.1,27.4-13.7,49.3-13.7h46.2
		l2.5,37.1h-48.5c-7.3,0-12.9,1.5-16.5,4.4c-3.7,2.9-5.5,7.3-5.5,13.2c0,6,2.3,10.5,6.9,13.4c4.6,2.9,11.6,4.4,21,4.4
		c13,0,22.7-1.5,29.1-4.4c6.3-3,9.5-7.6,9.5-13.9l3.7,26.8c-0.7,6.6-3.8,12.3-9.2,16.9c-5.4,4.6-12.1,8.1-20.3,10.4
		c-8.1,2.3-16.7,3.5-25.7,3.5C1731.1,825,1716.4,820.2,1706.6,810.8z M1802.3,705.3c0-8.5-2.8-15.1-8.5-19.7
		c-5.7-4.6-13.7-6.9-24.2-6.9c-6.9,0-13.7,1.1-20.4,3.4c-6.8,2.3-12.7,5.4-18,9.4l-30.2-29.7c7.3-8.4,17.1-15,29.1-19.6
		c12.1-4.7,25.5-7,40.2-7c16.1,0,29.9,2.7,41.2,8.1c11.4,5.4,20.1,13.2,26,23.5c6,10.3,9,22.6,9,37.1v118.6h-44.3V705.3z"/>
	<path class="st0" d="M1894.5,637.8h48.7v184.5h-48.7V637.8z M2001.2,710.5c0-9-2.6-16-7.7-21c-5.2-5-12.5-7.5-22-7.5
		c-9,0-16,2.5-20.9,7.6c-4.9,5-7.4,12.1-7.4,21.2l-3.7-40.9c5.6-11.6,12.2-20.3,20-26.1c7.8-5.8,17.5-8.7,29.2-8.7
		c19.4,0,34.5,6.5,45.1,19.6c10.7,13.1,16,31.6,16,55.5v112h-48.7V710.5z"/>
	<path class="st0" d="M2083.7,637.8h90.3v41.6h-90.3V637.8z M2114,810.8c-7.5-8.2-11.3-20.4-11.3-36.5V584.1h48.7v178.1
		c0,4.5,0.9,8,2.7,10.4c1.8,2.4,4.4,3.6,7.8,3.6h12.1v46.9h-24.5C2133.3,823.2,2121.5,819.1,2114,810.8z"/>
	<path class="st0" d="M2222.4,810.8c-9.8-9.4-14.7-23.7-14.7-42.9c0-18.2,5.5-31.9,16.4-41.1c11-9.1,27.4-13.7,49.3-13.7h46.2
		l2.5,37.1h-48.5c-7.3,0-12.9,1.5-16.5,4.4c-3.7,2.9-5.5,7.3-5.5,13.2c0,6,2.3,10.5,6.9,13.4c4.6,2.9,11.6,4.4,21,4.4
		c13,0,22.7-1.5,29.1-4.4c6.3-3,9.5-7.6,9.5-13.9l3.7,26.8c-0.7,6.6-3.8,12.3-9.2,16.9c-5.4,4.6-12.1,8.1-20.3,10.4
		c-8.1,2.3-16.7,3.5-25.7,3.5C2246.9,825,2232.2,820.2,2222.4,810.8z M2318.1,705.3c0-8.5-2.8-15.1-8.5-19.7
		c-5.7-4.6-13.7-6.9-24.2-6.9c-6.9,0-13.7,1.1-20.4,3.4c-6.8,2.3-12.7,5.4-18,9.4l-30.2-29.7c7.3-8.4,17.1-15,29.1-19.6
		c12.1-4.7,25.5-7,40.2-7c16.1,0,29.9,2.7,41.2,8.1c11.4,5.4,20.1,13.2,26,23.5c6,10.3,9,22.6,9,37.1v118.6h-44.3V705.3z"/>
	<path class="st0" d="M2410.3,637.8h52.3v184.5h-52.3V637.8z M2505.4,683.8c-3.4-1.2-7.4-1.8-11.9-1.8c-9.8,0-17.4,3.2-22.8,9.5
		c-5.4,6.3-8.1,15.1-8.1,26.4l-3.7-48c5.1-11,11.7-19.6,19.8-25.7c8.1-6.1,17-9.2,26.8-9.2c7.7,0,14.7,1.2,20.9,3.6
		c6.2,2.4,11.6,6,16.3,10.8l-28.4,39.6C2511.8,686.8,2508.9,685,2505.4,683.8z"/>
	<path class="st0" d="M2571.5,810.8c-9.8-9.4-14.7-23.7-14.7-42.9c0-18.2,5.5-31.9,16.4-41.1c11-9.1,27.4-13.7,49.3-13.7h46.2
		l2.5,37.1h-48.5c-7.3,0-12.9,1.5-16.5,4.4c-3.7,2.9-5.5,7.3-5.5,13.2c0,6,2.3,10.5,6.9,13.4c4.6,2.9,11.6,4.4,21,4.4
		c13,0,22.7-1.5,29.1-4.4c6.3-3,9.5-7.6,9.5-13.9l3.7,26.8c-0.7,6.6-3.8,12.3-9.2,16.9c-5.4,4.6-12.1,8.1-20.3,10.4
		c-8.1,2.3-16.7,3.5-25.7,3.5C2596,825,2581.2,820.2,2571.5,810.8z M2667.2,705.3c0-8.5-2.8-15.1-8.5-19.7
		c-5.7-4.6-13.7-6.9-24.2-6.9c-6.9,0-13.7,1.1-20.4,3.4c-6.8,2.3-12.7,5.4-18,9.4l-30.2-29.7c7.3-8.4,17.1-15,29.1-19.6
		c12.1-4.7,25.5-7,40.2-7c16.1,0,29.9,2.7,41.2,8.1c11.4,5.4,20.1,13.2,26,23.5c6,10.3,9,22.6,9,37.1v118.6h-44.3V705.3z"/>
</g>
</svg>
